<svg id="Capa_1" enable-background="new 0 0 512 512" height="512" viewBox="0 0 512 512" width="512" xmlns="http://www.w3.org/2000/svg"><path d="m452.177 75.103v395.02c0 17.605-14.272 31.878-31.878 31.878h-328.599c-17.605 0-31.878-14.272-31.878-31.878v-395.02c0-17.605 14.272-31.878 31.878-31.878h113.855c-2.862 6.647-4.448 13.977-4.448 21.668v19.6h109.786v-19.6c0-7.691-1.586-15.021-4.448-21.668h113.855c17.605 0 31.877 14.272 31.877 31.878z" fill="#ffec79"/><path d="m103.105 231.417v226.949h305.79v-373.877h-305.79v58.581z" fill="#f9f5f3"/><path d="m310.891 84.493h-109.782v-19.825c0-30.192 24.476-54.668 54.668-54.668h.446c30.192 0 54.668 24.476 54.668 54.668z" fill="#868eaf"/><path d="m420.3 33.225h-107.596c-11.067-19.8-32.23-33.225-56.481-33.225h-.446c-24.25 0-45.414 13.425-56.481 33.225h-107.596c-23.091 0-41.878 18.786-41.878 41.877v395.02c0 23.092 18.787 41.878 41.878 41.878h328.6c23.092 0 41.878-18.786 41.878-41.877v-395.02c0-23.092-18.786-41.878-41.878-41.878zm-67.018 20-10.125 21.264h-22.263c0-7.112.226-14.229-1.036-21.264zm-152.252 41.264c.026 0 .051.004.077.004h.001 109.783.002c.026 0 .051-.004.077-.004h22.663l-11.514 24.18h-132.453l-12.441-24.18zm54.747-74.489h.446c18.171 0 33.831 10.912 40.801 26.522.077.219.143.441.235.657 2.401 5.577 3.621 11.51 3.632 17.635v9.674h-89.783v-9.655c.008-6.134 1.228-12.073 3.631-17.655.092-.214.157-.434.234-.652 6.969-15.612 22.631-26.526 40.804-26.526zm-64.401 38.949c-.466 5.15-.269 10.375-.269 15.54h-24.172l-10.94-21.264h36.149c-.339 1.882-.598 3.79-.768 5.724zm250.802 411.174c0 12.063-9.814 21.877-21.878 21.877h-328.6c-12.063 0-21.878-9.814-21.878-21.877v-395.02c0-12.063 9.814-21.877 21.878-21.877h41.802l10.94 21.264h-41.338c-5.523 0-10 4.477-10 10v58.581c0 5.523 4.477 10 10 10s10-4.477 10-10v-48.582h41.628l19.94 38.755c1.714 3.331 5.146 5.425 8.892 5.425h144.87c3.857 0 7.37-2.218 9.028-5.701l18.322-38.479h43.11v353.877h-285.79v-216.949c0-5.523-4.477-10-10-10s-10 4.477-10 10v226.948c0 5.523 4.477 10 10 10h305.79c5.522 0 10-4.477 10-10v-373.876c0-5.523-4.478-10-10-10h-43.587l10.125-21.264h44.868c12.063 0 21.878 9.814 21.878 21.877z"/><path d="m246.77 54.1c1.636 3.924 5.708 6.477 9.964 6.148 4.344-.336 8.057-3.52 9.014-7.779 1.958-8.72-8.164-15.514-15.5-10.366-3.782 2.652-5.256 7.729-3.478 11.997z"/><path d="m172.326 259.232c1.957 1.983 4.537 2.977 7.119 2.977 2.535 0 5.072-.958 7.02-2.878l43.724-43.099c3.933-3.877 3.979-10.208.102-14.142s-10.208-3.979-14.142-.102l-36.605 36.083-16.4-16.621c-3.879-3.931-10.211-3.974-14.142-.095-3.932 3.879-3.974 10.21-.095 14.142z"/><path d="m218.645 326.338c-3.905-3.905-10.237-3.905-14.143 0l-13.541 13.541-13.541-13.541c-3.905-3.905-10.237-3.905-14.143 0-3.905 3.905-3.905 10.237 0 14.143l13.541 13.541-13.541 13.541c-3.905 3.905-3.905 10.237 0 14.143 1.953 1.953 4.512 2.929 7.071 2.929s5.119-.976 7.071-2.929l13.541-13.541 13.541 13.541c1.953 1.953 4.512 2.929 7.071 2.929s5.119-.976 7.071-2.929c3.905-3.905 3.905-10.237 0-14.143l-13.541-13.541 13.541-13.541c3.907-3.905 3.907-10.237.002-14.143z"/><path d="m265.291 221.185h88.072c5.522 0 10-4.477 10-10s-4.478-10-10-10h-88.072c-5.522 0-10 4.477-10 10s4.478 10 10 10z"/><path d="m265.291 263.146h57.95c5.522 0 10-4.477 10-10s-4.478-10-10-10h-57.95c-5.522 0-10 4.477-10 10s4.478 10 10 10z"/><path d="m265.291 343.042h88.072c5.522 0 10-4.477 10-10s-4.478-10-10-10h-88.072c-5.522 0-10 4.477-10 10s4.478 10 10 10z"/><path d="m265.291 385.002h57.95c5.522 0 10-4.477 10-10s-4.478-10-10-10h-57.95c-5.522 0-10 4.477-10 10s4.478 10 10 10z"/><path d="m93.87 190.77c3.497 8.531 16.135 7.83 18.8-.92 2.585-8.486-6.818-15.909-14.488-11.601-4.34 2.438-6.225 7.929-4.312 12.521z"/></svg>