<?xml version="1.0" encoding="iso-8859-1"?>
<!-- Generator: Adobe Illustrator 19.0.0, SVG Export Plug-In . SVG Version: 6.00 Build 0)  -->
<svg version="1.1" id="Layer_1" xmlns="http://www.w3.org/2000/svg" xmlns:xlink="http://www.w3.org/1999/xlink" x="0px" y="0px"
	 viewBox="0 0 512 512" style="enable-background:new 0 0 512 512;" xml:space="preserve">
<path style="fill:#8AE9FF;" d="M335.921,318.784c0-7.689,2.994-14.918,8.432-20.356l59.166-59.166H234.97
	c-15.873,0-28.786-12.913-28.786-28.786s12.913-28.786,28.786-28.786h168.548l-59.166-59.166
	c-5.437-5.437-8.432-12.666-8.432-20.356s2.994-14.918,8.432-20.355c5.437-5.437,12.666-8.431,20.356-8.431
	s14.918,2.994,20.355,8.432l108.306,108.306c5.437,5.437,8.432,12.666,8.432,20.355s-2.994,14.917-8.432,20.355L385.063,339.139
	c-5.437,5.437-12.665,8.432-20.355,8.432s-14.918-2.993-20.356-8.431S335.921,326.473,335.921,318.784z"/>
<g>
	<path style="fill:#248A9C;" d="M364.708,357.77c-10.412,0-20.203-4.055-27.566-11.417c-7.364-7.365-11.419-17.155-11.419-27.567
		c0-10.413,4.055-20.204,11.418-27.567l41.755-41.754H234.97c-21.497,0-38.985-17.489-38.985-38.985s17.489-38.985,38.985-38.985
		h143.925l-41.753-41.753c-7.364-7.365-11.419-17.154-11.419-27.567c0-10.412,4.055-20.203,11.418-27.566
		c7.365-7.364,17.155-11.418,27.567-11.418s20.203,4.055,27.566,11.418l108.306,108.306c7.364,7.365,11.419,17.154,11.419,27.566
		s-4.055,20.203-11.418,27.566L392.276,346.351C384.912,353.715,375.122,357.77,364.708,357.77z M234.97,191.891
		c-10.249,0-18.587,8.338-18.587,18.587s8.338,18.587,18.587,18.587h168.548c4.125,0,7.844,2.486,9.423,6.296
		c1.579,3.81,0.706,8.198-2.211,11.115l-59.166,59.165c-3.511,3.511-5.443,8.179-5.443,13.144c0,4.965,1.934,9.632,5.444,13.144
		c3.511,3.51,8.179,5.443,13.144,5.443c4.965,0,9.632-1.934,13.144-5.444l108.305-108.306c3.511-3.511,5.444-8.179,5.444-13.143
		c0-4.964-1.934-9.632-5.444-13.144L377.853,89.029c-3.511-3.511-8.179-5.444-13.144-5.444c-4.965,0-9.633,1.934-13.145,5.444
		c-3.51,3.51-5.443,8.178-5.443,13.143c0,4.965,1.934,9.633,5.444,13.144l59.166,59.165c2.917,2.917,3.79,7.304,2.211,11.115
		c-1.579,3.811-5.297,6.296-9.423,6.296L234.97,191.891L234.97,191.891z"/>
	<path style="fill:#248A9C;" d="M414.088,280.477c-2.61,0-5.221-0.995-7.212-2.987c-3.983-3.983-3.983-10.441,0-14.425l1.728-1.728
		c3.983-3.983,10.441-3.983,14.425,0c3.983,3.983,3.983,10.441,0,14.425l-1.728,1.728
		C419.309,279.482,416.698,280.477,414.088,280.477z"/>
	<path style="fill:#248A9C;" d="M435.895,258.67c-2.61,0-5.221-0.995-7.212-2.987c-3.983-3.983-3.983-10.441,0-14.425l38.367-38.367
		c3.983-3.983,10.441-3.983,14.425,0c3.983,3.983,3.983,10.441,0,14.425l-38.367,38.367
		C441.116,257.675,438.505,258.67,435.895,258.67z"/>
</g>
<path style="fill:#8AE9FF;" d="M126.937,430.182L18.631,321.876c-5.437-5.437-8.432-12.666-8.432-20.356s2.994-14.917,8.432-20.355
	l108.306-108.306c5.436-5.437,12.665-8.432,20.355-8.432s14.918,2.994,20.356,8.432c5.437,5.437,8.432,12.666,8.432,20.355
	c0,7.689-2.994,14.918-8.432,20.355l-59.166,59.166H277.03c15.873,0,28.786,12.913,28.786,28.786
	c0,15.873-12.913,28.786-28.786,28.786H108.482l59.166,59.166c5.437,5.437,8.432,12.666,8.432,20.356s-2.994,14.918-8.432,20.355
	c-5.437,5.437-12.666,8.431-20.356,8.431C139.603,438.613,132.374,435.619,126.937,430.182z"/>
<path style="fill:#248A9C;" d="M147.292,448.812c-10.412,0-20.203-4.055-27.566-11.417c0,0,0,0-0.001,0L11.419,329.089
	C4.055,321.723,0,311.932,0,301.52s4.055-20.203,11.418-27.566l108.306-108.306c7.363-7.363,17.153-11.419,27.567-11.419
	c10.413,0,20.205,4.055,27.567,11.418c7.363,7.365,11.418,17.154,11.418,27.567c0,10.413-4.055,20.203-11.418,27.566l-41.755,41.754
	H277.03c21.497,0,38.985,17.489,38.985,38.985s-17.489,38.985-38.985,38.985H133.105l41.754,41.754
	c7.364,7.365,11.419,17.154,11.419,27.567c0,10.412-4.055,20.203-11.418,27.566C167.494,444.758,157.705,448.812,147.292,448.812z
	 M134.148,422.969c3.512,3.511,8.18,5.444,13.144,5.444s9.633-1.934,13.145-5.444c3.51-3.51,5.443-8.178,5.443-13.143
	c0-4.965-1.934-9.633-5.444-13.144l-59.166-59.165c-2.917-2.917-3.79-7.304-2.211-11.115c1.579-3.811,5.297-6.296,9.423-6.296
	H277.03c10.249,0,18.587-8.338,18.587-18.587c0-10.249-8.338-18.587-18.587-18.587H108.482c-4.125,0-7.844-2.486-9.423-6.296
	c-1.579-3.81-0.706-8.198,2.211-11.115l59.166-59.165c3.511-3.511,5.443-8.179,5.443-13.143s-1.934-9.632-5.444-13.144
	c-3.511-3.511-8.179-5.443-13.144-5.443c-4.965,0-9.632,1.934-13.143,5.443L25.842,288.377c-3.51,3.511-5.443,8.179-5.443,13.143
	c0,4.965,1.934,9.632,5.444,13.145L134.148,422.969L134.148,422.969z"/>
<g>
</g>
<g>
</g>
<g>
</g>
<g>
</g>
<g>
</g>
<g>
</g>
<g>
</g>
<g>
</g>
<g>
</g>
<g>
</g>
<g>
</g>
<g>
</g>
<g>
</g>
<g>
</g>
<g>
</g>
</svg>
