<svg height="512pt" viewBox="-35 0 512 512" width="512pt" xmlns="http://www.w3.org/2000/svg"><path d="m407.203125 7.5h-373.332031c-14.5625 0-26.371094 11.808594-26.371094 26.371094v444.257812c0 14.5625 11.808594 26.371094 26.371094 26.371094h373.332031c14.566406 0 26.375-11.808594 26.375-26.371094v-444.257812c0-14.5625-11.808594-26.371094-26.375-26.371094zm0 0" fill="#efedee"/><path d="m52.5 52.5h336.078125v346h-336.078125zm0 0" fill="#b6a4ff"/><path d="m226.828125 259.90625s10.847656-66.152344-40.054687-94.742188c-3.519532-1.976562-5.945313-5.4375-6.753907-9.394531-1.5-7.304687-6.859375-19.355469-25.476562-26.757812-4.125-1.644531-8.808594-.796875-12.074219 2.207031-7.28125 6.699219-23.257812 18.460938-47.929688 21.28125-35 4-42.039062 19.5-42.039062 19.5v105.5zm0 0" fill="#3a484a"/><path d="m171.917969 189.699219c-25.621094 40.699219-86.878907 29.800781-119.417969 87.800781v121h141.835938c24.066406-23.566406 39.203124-57.730469 39.203124-95.75 0-48.769531-24.90625-91.199219-61.621093-113.050781zm0 0" fill="#e6b09c"/><path d="m388.578125 345.671875v52.828125h-195.699219c-1.308594-7.859375-2.011718-15.929688-2.011718-24.171875 0-61.699219 38.363281-114.4375 92.542968-135.667969h52.582032l35.046874 35.839844zm0 0" fill="#fbc4ac"/><path d="m388.578125 238.25v107.421875c-78.960937-49.34375-35.710937-94-105.167969-107.011719 16.457032-6.449218 34.378906-9.988281 53.128906-9.988281 18.339844 0 35.878907 3.386719 52.039063 9.578125zm0 0" fill="#3a484a"/><path d="m109.007812 512h298.195313c18.679687 0 33.875-15.195312 33.875-33.871094v-444.257812c0-18.675782-15.195313-33.871094-33.875-33.871094h-373.332031c-18.675782 0-33.871094 15.195312-33.871094 33.871094v444.257812c0 18.675782 15.195312 33.871094 33.871094 33.871094h45.136718c4.144532 0 7.5-3.359375 7.5-7.5s-3.355468-7.5-7.5-7.5h-45.136718c-10.40625 0-18.871094-8.464844-18.871094-18.871094v-444.257812c0-10.40625 8.464844-18.871094 18.871094-18.871094h373.332031c10.410156 0 18.875 8.464844 18.875 18.871094v444.257812c0 10.40625-8.464844 18.871094-18.875 18.871094h-298.195313c-4.140624 0-7.5 3.359375-7.5 7.5s3.359376 7.5 7.5 7.5zm0 0"/><path d="m241.484375 319.355469c1.148437.632812 2.394531.933593 3.617187.933593 2.644532 0 5.207032-1.402343 6.574219-3.878906l4.496094-8.15625c2-3.625.683594-8.1875-2.945313-10.1875-3.625-2-8.1875-.683594-10.1875 2.945313l-4.5 8.152343c-2 3.628907-.679687 8.191407 2.945313 10.191407zm0 0"/><path d="m331.601562 369.0625c1.144532.632812 2.390626.933594 3.613282.933594 2.644531 0 5.207031-1.398438 6.574218-3.878906l4.496094-8.152344c2.003906-3.628906.683594-8.191406-2.941406-10.191406-3.628906-2-8.191406-.683594-10.191406 2.945312l-4.496094 8.152344c-2.003906 3.625-.683594 8.191406 2.945312 10.191406zm0 0"/><path d="m276.90625 352.113281c3.734375 2.0625 7.851562 3.109375 11.949219 3.109375 2.738281 0 5.46875-.46875 8.066406-1.414062 3.894531-1.414063 5.902344-5.714844 4.488281-9.609375-1.414062-3.890625-5.714844-5.902344-9.609375-4.488281-2.421875.882812-5.210937.613281-7.652343-.730469-2.4375-1.34375-4.152344-3.5625-4.699219-6.082031-.882813-4.046876-4.878907-6.613282-8.921875-5.734376-4.050782.882813-6.617188 4.875-5.734375 8.921876 1.46875 6.75 5.882812 12.59375 12.113281 16.027343zm0 0"/><path d="m297.007812 60c4.144532 0 7.5-3.359375 7.5-7.5s-3.355468-7.5-7.5-7.5h-244.507812c-4.140625 0-7.5 3.359375-7.5 7.5v346c0 4.140625 3.359375 7.5 7.5 7.5h336.078125c4.144531 0 7.5-3.359375 7.5-7.5v-346c0-4.140625-3.359375-7.5-7.5-7.5h-61.570313c-4.140624 0-7.5 3.359375-7.5 7.5s3.359376 7.5 7.5 7.5h54.070313v167.753906c-14.378906-4.371094-29.3125-6.582031-44.539063-6.582031-19.277343 0-38.074218 3.53125-55.867187 10.503906v.003907c-17.019531 6.667968-32.527344 16.25-45.992187 28.257812-.066407-.214844-.128907-.429688-.195313-.644531.625-5.050781 1.957031-19.90625-1.214844-37.375-5.1875-28.585938-19.996093-50.472657-42.824219-63.292969-1.570312-.882812-2.691406-2.472656-3.082031-4.359375-1.6875-8.242187-7.835937-23.386719-30.046875-32.222656-2.261718-.902344-4.636718-1.355469-7.0625-1.355469-4.78125 0-9.347656 1.78125-12.863281 5.011719-6.65625 6.125-21.179687 16.777343-43.703125 19.351562-15.660156 1.789063-26.398438 5.800781-33.6875 10.042969v-95.09375zm-237.007812 331v-111.480469c5.507812-9.394531 12.570312-17.816406 20.976562-24.75 12.804688-10.5625 28.128907-17.167969 43.308594-23.507812 15.855469-6.625 32.246094-13.417969 44.589844-25.785157 1.746094-1.75 3.425781-3.621093 5.019531-5.621093.019531.015625.039063.027343.058594.042969 11.929687 8.234374 22.105469 18.730468 30.316406 30.65625 6.671875 9.6875 11.761719 20.496093 15.402344 31.664062 1.066406 3.261719 1.996094 6.570312 2.789063 9.910156-.035157.039063-.066407.078125-.101563.117188-9.761719 10.859375-17.976563 23.21875-24.230469 36.40625-9.707031 20.457031-14.761718 43.039062-14.761718 65.675781 0 5.5625.300781 11.140625.910156 16.667969h-124.277344zm276.539062-154.828125c15.289063 0 30.246094 2.464844 44.539063 7.339844v88.03125c-1.417969-1.046875-2.824219-2.109375-4.210937-3.199219-8.59375-6.773438-16.585938-14.699219-22.898438-23.75-5.585938-7.980469-9.664062-16.863281-13.351562-25.84375-.011719-.027344-.023438-.054688-.035157-.082031-2.808593-6.867188-5.511719-13.847657-9.402343-20.191407-4.886719-8-11.765626-14.359374-20.0625-18.703124-.597657-.3125-1.203126-.621094-1.832032-.921876 8.914063-1.785156 18.023438-2.679687 27.253906-2.679687zm-52.402343 10.277344c.433593-.179688 1.699219.359375 2.199219.46875 10 2.203125 20.230468 5.734375 27.433593 13.355469 5.894531 6.242187 9.035157 14.511718 12.21875 22.332031 4.363281 10.710937 9.144531 21.296875 15.816407 30.796875 10.359374 14.753906 24.238281 26.425781 39.175781 36.3125.035156.019531.066406.042968.097656.0625v41.222656h-181.695313c-.023437-.175781-.039062-.347656-.0625-.523438-.625-5.355468-.953124-10.753906-.953124-16.148437 0-34.988281 13.660156-69.457031 37.824218-94.980469 13.4375-14.21875 29.703125-25.421875 47.945313-32.898437zm-188.746094-86.5c26.746094-3.054688 44.15625-15.851563 52.15625-23.210938 1.117187-1.03125 2.789063-1.332031 4.226563-.761719 14.878906 5.921876 19.578124 14.851563 20.898437 21.300782 1.261719 6.152344 5.0625 11.410156 10.429687 14.425781 18.949219 10.644531 30.835938 28.292969 35.328126 52.453125.054687.285156.105468.570312.15625.851562-.199219-.308593-3.433594-5.148437-4.949219-7.183593-10.191407-13.859375-23.085938-25.773438-37.882813-34.570313-3.453125-2.054687-8.042968-.949218-10.183594 2.449219-9.648437 15.328125-25.230468 22.546875-43.398437 30.183594-16.917969 7.109375-34.085937 14.210937-48.660156 25.613281-4.855469 3.800781-9.394531 8.015625-13.511719 12.605469v-79.882813c2.4375-3.03125 11.277344-11.515625 35.390625-14.273437zm0 0"/><path d="m86.640625 292.4375c-1.445313-3.882812-5.761719-5.859375-9.644531-4.414062-3.882813 1.445312-5.859375 5.761718-4.414063 9.644531 0 0 3.492188 9.386719 3.496094 9.402343 1.425781 3.828126 5.832031 5.835938 9.644531 4.414063 3.882813-1.441406 5.859375-5.761719 4.414063-9.644531zm0 0"/><path d="m189.632812 272.828125c3.882813-1.445313 5.859376-5.761719 4.414063-9.644531l-3.496094-9.40625c-1.445312-3.878906-5.765625-5.855469-9.644531-4.414063-3.882812 1.445313-5.859375 5.765625-4.414062 9.648438 0 0 3.492187 9.386719 3.496093 9.402343 1.421875 3.820313 5.832031 5.832032 9.644531 4.414063zm0 0"/><path d="m150.300781 272.6875c-3.871093-1.464844-8.203125.484375-9.671875 4.359375-1.042968 2.753906-3.34375 4.964844-6.3125 6.070313-2.96875 1.105468-6.15625.933593-8.746094-.46875-3.644531-1.972657-8.195312-.617188-10.167968 3.023437-1.972656 3.644531-.617188 8.195313 3.023437 10.167969 6.449219 3.492187 14.277344 3.882812 21.121094 1.335937 7.023437-2.613281 12.53125-8.015625 15.109375-14.816406 1.46875-3.875-.480469-8.203125-4.355469-9.671875zm0 0"/><path d="m309.738281 447.125c-1.875-9.203125-8.832031-10.214844-15.3125-8.894531l-13.285156 2.707031c-2.203125.449219-4.195313 1.933594-3.769531 4.007812l8.398437 41.210938c.328125 1.621094 2.304688 2.703125 5.027344 2.148438l14.382813-2.929688c7.324218-1.492188 12.273437-6.347656 10.1875-16.589844l-.277344-1.359375c-1.320313-6.480469-4.53125-8.320312-8.789063-9.007812 3.132813-2.1875 4.507813-6.046875 3.4375-11.292969zm-19.328125 10.484375-1.835937-9.007813 6.804687-1.386718c2.464844-.5 4.15625 1.515625 4.617188 3.785156.449218 2.203125-.316406 4.722656-2.78125 5.222656zm10.707032 19.414063-6.480469 1.320312-2.640625-12.960938 6.480468-1.320312c3.238282-.660156 5.5.5 6.398438 4.90625l.210938 1.035156c.84375 4.148438-.730469 6.359375-3.96875 7.019532zm0 0"/><path d="m344.628906 432.523438c-.425781-2.074219-1.792968-4.160157-3.933594-3.722657l-22.484374 4.582031c-2.203126.449219-4.195313 1.933594-3.773438 4.007813l8.386719 41.148437c.421875 2.070313 3.160156 2.59375 5.6875 2.078126 2.527343-.511719 4.84375-2.066407 4.421875-4.136719l-3.410156-16.71875 9.785156-1.996094c2.140625-.4375 2.625-2.695313 2.265625-4.445313-.421875-2.074218-1.90625-3.726562-3.851563-3.332031l-9.78125 1.996094-2.230468-10.953125 16.78125-3.417969c1.945312-.394531 2.625-2.695312 2.136718-5.089843zm0 0"/><path d="m378.003906 425.722656c-.421875-2.074218-1.792968-4.160156-3.929687-3.722656l-22.484375 4.582031c-2.207032.449219-4.195313 1.933594-3.773438 4.007813l8.382813 41.148437c.421875 2.074219 3.164062 2.59375 5.691406 2.078125 2.523437-.511718 4.839844-2.066406 4.417969-4.136718l-3.40625-16.71875 9.785156-1.996094c2.140625-.4375 2.625-2.695313 2.265625-4.445313-.421875-2.070312-1.90625-3.726562-3.847656-3.332031l-9.785157 1.996094-2.230468-10.953125 16.78125-3.417969c1.941406-.394531 2.621094-2.695312 2.132812-5.089844zm0 0"/><path d="m391.296875 453.179688c1.554687-.316407 3.585937-1.605469 3.175781-3.617188-1.570312-7.710938-2.921875-18.976562-4.492187-26.6875-.515625-2.527344-2.945313-3.515625-5.46875-3-2.660157.539062-4.441407 2.386719-3.925781 4.914062 1.570312 7.714844 4.734374 18.609376 6.304687 26.320313.410156 2.007813 2.332031 2.492187 4.40625 2.070313zm0 0"/><path d="m394.304688 467.617188c2.660156-.542969 4.449218-3.335938 3.910156-5.992188-.554688-2.722656-3.285156-4.527344-5.941406-3.984375-2.851563.582031-4.527344 3.285156-3.972657 6.003906.539063 2.65625 3.152344 4.554688 6.003907 3.972657zm0 0"/></svg>