<svg id="Capa_1" enable-background="new 0 0 512 512" height="512" viewBox="0 0 512 512" width="512" xmlns="http://www.w3.org/2000/svg"><path d="m512 90v407c0 8.28-6.72 15-15 15h-482c-8.28 0-15-6.72-15-15v-407c0-8.28 6.72-15 15-15h482c8.28 0 15 6.72 15 15z" fill="#edf5ff"/><path d="m512 90v407c0 8.28-6.72 15-15 15h-241v-437h241c8.28 0 15 6.72 15 15z" fill="#d5e8fe"/><path d="m512 15c0-8.284-6.716-15-15-15h-121l-12 46.5 12 43.5h136z" fill="#16aac8"/><path d="m376 0v90h-376v-75c0-8.28 6.72-15 15-15z" fill="#35569b"/><path d="m256 0h120v90h-120z" fill="#1a3459"/><path d="m391 437c0 8.28-6.72 15-15 15h-240c-8.28 0-15-6.72-15-15s6.72-15 15-15h240c8.28 0 15 6.72 15 15z" fill="#4fdae1"/><path d="m391 437c0 8.28-6.72 15-15 15h-120v-30h120c8.28 0 15 6.72 15 15z" fill="#16aac8"/><path d="m256 122c-74.44 0-135 60.56-135 135s60.56 135 135 135 135-60.56 135-135-60.56-135-135-135z" fill="#fc1c5c"/><path d="m391 257c0 74.44-60.56 135-135 135v-270c74.44 0 135 60.56 135 135z" fill="#dd0056"/><path d="m361 257c0 57.9-47.1 105-105 105s-105-47.1-105-105 47.1-105 105-105 105 47.1 105 105z" fill="#edf5ff"/><path d="m361 257c0 57.9-47.1 105-105 105v-210c57.9 0 105 47.1 105 105z" fill="#edf5ff"/><path d="m351.42 182.79-169.63 169.63c-5.85 5.86-15.35 5.86-21.21 0s-5.86-15.36 0-21.21l169.63-169.63c5.85-5.86 15.35-5.86 21.21 0s5.86 15.36 0 21.21z" fill="#fc1c5c"/><path d="m351.42 182.79-95.42 95.42v-42.42l74.21-74.21c5.85-5.86 15.35-5.86 21.21 0s5.86 15.36 0 21.21z" fill="#dd0056"/></svg>