<svg height="512" viewBox="0 0 64 64" width="512" xmlns="http://www.w3.org/2000/svg"><path d="m45.4 52.4a23.965 23.965 0 0 1 -15.4 8.41v-.81l3-3v-4l2-2v-4l-5-5h-8l-4 4v3l2 2h4v4l2 2v3.98a23.919 23.919 0 0 1 -16.46-7.52l2.46-2.46v-3l3-3v-3l-5-5v-3h3l4-4v-4l4-4v-4l-3-3h-.58a23.884 23.884 0 0 1 8.58-1.98v5.98l4 4h5l5 5v6l-2 2v4l4 4v5z" fill="#3d9ae2"/><g fill="#00ccb3"><path d="m21 18v4l-4 4v4l-4 4h-3v3l5 5v3l-3 3v3l-2.46 2.46a23.989 23.989 0 0 1 7.88-38.46h.58z"/><path d="m33 31v3l-2 2h-2v-4l-2-2v-2h6z"/><path d="m35 47v4l-2 2v4l-3 3v.81a22.8 22.8 0 0 1 -3 .19c-.34 0-.67-.01-1-.02v-3.98l-2-2v-4h-4l-2-2v-3l3-3 1-1h8z"/><path d="m51 37a23.92 23.92 0 0 1 -5.6 15.4l-3.4-3.4v-5l-4-4v-4l2-2v-6l-5-5h-5l-4-4v-5.98c.33-.01.66-.02 1-.02a24.006 24.006 0 0 1 24 24z"/></g><circle cx="53" cy="11" fill="#d1d3d4" r="8"/><path d="m27 12a25 25 0 1 0 25 25 25.028 25.028 0 0 0 -25-25zm23 25a22.873 22.873 0 0 1 -4.689 13.9l-2.311-2.314v-4.586a1 1 0 0 0 -.293-.707l-3.707-3.707v-3.172l1.707-1.707a1 1 0 0 0 .293-.707v-6a1 1 0 0 0 -.293-.707l-5-5a1 1 0 0 0 -.707-.293h-4.586l-3.414-3.414v-4.586a23.025 23.025 0 0 1 23 23zm-32.4-20.984 2.4 2.4v3.172l-3.707 3.707a1 1 0 0 0 -.293.705v3.586l-3.414 3.414h-2.586a1 1 0 0 0 -1 1v3a1 1 0 0 0 .293.707l4.707 4.707v2.172l-2.707 2.707a1 1 0 0 0 -.293.707v2.586l-1.414 1.414a22.967 22.967 0 0 1 8.014-35.984zm9.105 40.277-1.705-1.707v-3.586a1 1 0 0 0 -1-1h-3.586l-1.414-1.414v-2.172l3.414-3.414h7.172l4.414 4.414v3.172l-1.707 1.707a1 1 0 0 0 -.293.707v3.586l-2.707 2.707a.986.986 0 0 0 -.274.613c-.666.058-1.338.094-2.019.094v-3a1 1 0 0 0 -.293-.707zm5.251 3.163 1.749-1.749a1 1 0 0 0 .295-.707v-3.586l1.707-1.707a1 1 0 0 0 .293-.707v-4a1 1 0 0 0 -.293-.707l-5-5a1 1 0 0 0 -.707-.293h-8a1 1 0 0 0 -.707.293l-4 4a1 1 0 0 0 -.293.707v3a1 1 0 0 0 .293.707l2 2a1 1 0 0 0 .707.293h3v3a1 1 0 0 0 .293.707l1.707 1.707v2.494a22.927 22.927 0 0 1 -14.044-6.45l1.751-1.751a1 1 0 0 0 .293-.707v-2.586l2.707-2.707a1 1 0 0 0 .293-.707v-3a1 1 0 0 0 -.293-.707l-4.707-4.707v-1.586h2a1 1 0 0 0 .707-.293l4-4a1 1 0 0 0 .293-.707v-3.586l3.707-3.707a1 1 0 0 0 .293-.707v-4a1 1 0 0 0 -.293-.707l-2.075-2.075a22.845 22.845 0 0 1 5.368-1.126v4.908a1 1 0 0 0 .293.707l4 4a1 1 0 0 0 .707.293h4.586l4.414 4.414v5.172l-1.707 1.707a1 1 0 0 0 -.293.707v4a1 1 0 0 0 .293.707l3.707 3.707v4.586a1 1 0 0 0 .293.707l2.737 2.737a23.014 23.014 0 0 1 -12.072 7.012z"/><path d="m33 27h-6a1 1 0 0 0 -1 1v2a1 1 0 0 0 .293.707l1.707 1.707v3.586a1 1 0 0 0 1 1h2a1 1 0 0 0 .707-.293l2-2a1 1 0 0 0 .293-.707v-6a1 1 0 0 0 -1-1zm-1 6.586-1.414 1.414h-.586v-3a1 1 0 0 0 -.293-.707l-1.707-1.707v-.586h4z"/><path d="m27 5a31.826 31.826 0 0 1 11.636 2.182l.728-1.864a34.041 34.041 0 0 0 -36.064 7.301l1.4 1.434a31.828 31.828 0 0 1 22.3-9.053z"/><path d="m56.818 25.364a32.036 32.036 0 0 1 -6.871 33.936l1.434 1.4a34.041 34.041 0 0 0 7.3-36.061z"/><path d="m52.68 52.518a30.086 30.086 0 0 0 3.164-23.793l-1.922.55a28.093 28.093 0 0 1 -2.953 22.207z"/><path d="m11.482 11.32 1.036 1.711a28.094 28.094 0 0 1 21.242-3.21l.48-1.941a30.09 30.09 0 0 0 -22.758 3.44z"/><path d="m53 20a9 9 0 1 0 -9-9 9.01 9.01 0 0 0 9 9zm0-16a7 7 0 1 1 -7 7 7.009 7.009 0 0 1 7-7z"/><path d="m49 7h2v2h-2z"/><path d="m54 14h2v2h-2z"/><path d="m56 8h2v2h-2z"/><path d="m50 11h2v2h-2z"/></svg>